<?xml version="1.0" encoding="UTF-8" standalone="no"?>
<svg
   xmlns:dc="http://purl.org/dc/elements/1.1/"
   xmlns:cc="http://creativecommons.org/ns#"
   xmlns:rdf="http://www.w3.org/1999/02/22-rdf-syntax-ns#"
   xmlns:svg="http://www.w3.org/2000/svg"
   xmlns="http://www.w3.org/2000/svg"
   xmlns:sodipodi="http://sodipodi.sourceforge.net/DTD/sodipodi-0.dtd"
   xmlns:inkscape="http://www.inkscape.org/namespaces/inkscape"
   viewBox="0 0 700 700"
   version="1.1"
   id="svg20"
   sodipodi:docname="wellhub-logo.svg"
   width="700"
   height="700"
   style="fill:currentColor"
   inkscape:version="0.92.0 r15299"
   inkscape:export-filename="C:\Users\suitedoalex\sites\wellhub-logo-0.png"
   inkscape:export-xdpi="561.73712"
   inkscape:export-ydpi="561.73712">
  <metadata
     id="metadata26">
    <rdf:RDF>
      <cc:Work
         rdf:about="">
        <dc:format>image/svg+xml</dc:format>
        <dc:type
           rdf:resource="http://purl.org/dc/dcmitype/StillImage" />
        <dc:title>Wellhub Logo</dc:title>
      </cc:Work>
    </rdf:RDF>
  </metadata>
  <defs
     id="defs24" />
  <sodipodi:namedview
     pagecolor="#ffffff"
     bordercolor="#666666"
     borderopacity="1"
     objecttolerance="10"
     gridtolerance="10"
     guidetolerance="10"
     inkscape:pageopacity="0"
     inkscape:pageshadow="2"
     inkscape:window-width="1920"
     inkscape:window-height="1017"
     id="namedview22"
     showgrid="false"
     inkscape:zoom="0.36347518"
     inkscape:cx="383.04483"
     inkscape:cy="52.722219"
     inkscape:window-x="-8"
     inkscape:window-y="-8"
     inkscape:window-maximized="1"
     inkscape:current-layer="svg20" />
  <title
     id="title2">Wellhub Logo</title>
  <path
     d="m 603.9949,355.97841 0.0657,-0.0219 c 0.60887,-0.23215 1.29658,-0.12659 1.81785,0.2637 13.92954,10.52163 41.80615,-2.31108 49.8485,-10.54265 2.46176,-2.52221 3.51743,-5.94152 2.9217,-9.39245 -0.61325,-3.46145 -2.78153,-6.3425 -5.96167,-7.91497 l -1.76091,-0.85478 0.0613,0.16865 c -4.54682,-1.42467 -9.62804,0.48547 -13.05786,5.04446 -0.61325,0.80205 -1.28782,1.73077 -2.02372,2.74386 -4.76146,6.54307 -12.72933,17.50799 -20.03577,18.63725 -2.06315,0.31626 -3.91604,-0.14806 -5.68133,-1.42493 -0.69209,-0.50637 -0.9812,-1.41398 -0.70524,-2.20551 l 0.0219,-0.0635 c 0.23654,-0.67545 0.74904,-1.17131 1.35791,-1.32944 16.82496,-4.443 23.95181,-33.83394 22.45372,-45.05205 -0.45993,-3.47204 -2.51432,-6.42695 -5.61562,-8.10493 -3.12319,-1.68854 -6.75013,-1.80462 -9.9697,-0.3167 l -0.2234,0.10556 c -4.95418,2.26894 -7.17941,7.90441 -5.55429,14.0253 0.25844,0.97091 0.5782,2.06845 0.91987,3.26096 2.9217,10.21557 7.80142,27.31186 -1.90107,30.46747 -0.95492,0.30575 -1.97993,-0.053 -2.52747,-0.84454 l -0.0613,-0.0951 c -0.39861,-0.56989 -0.45993,-1.30841 -0.19273,-1.95233 6.60996,-15.76645 -12.0898,-39.40576 -21.74849,-45.1573 -3.02683,-1.80463 -6.63187,-2.06845 -9.90399,-0.71764 -3.29404,1.35082 -5.65943,4.09467 -6.4917,7.51394 l -0.0569,0.23216 c -1.28345,5.245 1.78718,10.4794 7.63934,13.02277 0.92864,0.41175 2.01059,0.85482 3.17577,1.34025 9.98284,4.14746 26.66763,11.09151 22.81729,20.6527 -0.33291,0.82307 -1.20022,1.34039 -2.17266,1.28739 -0.7359,-0.0438 -1.40171,-0.44286 -1.73024,-1.05523 -8.27888,-15.03835 -38.70486,-15.33384 -49.336,-11.43966 -3.31593,1.21362 -5.76455,3.8414 -6.73699,7.20788 -0.97682,3.3876 -0.2891,6.91256 1.90108,9.70898 l 0.14017,0.1796 c 3.34659,4.2634 9.40463,5.1605 15.07282,2.22653 0.89797,-0.46431 1.91422,-1.01317 3.02683,-1.6146 9.56232,-5.14999 25.57692,-13.77202 30.645,-4.61164 0.40737,0.72802 0.2891,1.65665 -0.29787,2.30057 l -0.0657,0.0736 c -0.49936,0.52783 -1.23088,0.7705 -1.94488,0.64391 -17.0396,-3.00756 -36.28253,20.31523 -39.835,30.97396 -1.11261,3.32426 -0.5563,6.87016 1.50685,9.71958 2.06315,2.85994 5.29585,4.51659 8.84832,4.5696 h 0.2234 c 0,0 0.10513,0 0.14893,0 5.39223,0 9.80763,-4.09476 11.00785,-10.24742 0.19273,-0.99171 0.39423,-2.12097 0.62201,-3.35579 1.43238,-8.04147 3.82843,-21.50757 10.04417,-25.50728 1.8047,-1.16079 3.79777,-1.46698 6.08432,-0.90761 0.65267,0.15813 1.16517,0.72802 1.26154,1.40347 l 0.035,0.17959 c 0.0964,0.61194 -0.15331,1.23483 -0.66581,1.65666 -13.47837,11.08099 -7.0261,40.79911 -0.68334,50.37107 1.93612,2.92302 5.06808,4.7067 8.61179,4.89637 0.2015,0.009 0.40737,0.0219 0.61763,0.0219 3.32907,0 6.40847,-1.43544 8.55922,-4.0422 l 0.11827,-0.14761 c 3.46487,-4.16836 3.00493,-10.20493 -1.15641,-15.00668 -0.66144,-0.75999 -1.42362,-1.6146 -2.25589,-2.55419 -5.47545,-6.12068 -14.63478,-16.3786 -13.92954,-23.68154 0.20587,-2.13148 1.20898,-3.85165 3.08377,-5.27658 0.56507,-0.43234 1.37981,-0.47483 2.01935,-0.10557 0.56944,0.32722 0.91987,0.93959 0.94177,1.62555 0.33291,17.3493 27.88538,30.88943 39.41887,31.96568 3.51743,0.32721 6.8903,-0.98164 9.24256,-3.58795 2.37415,-2.62778 3.30279,-6.1106 2.55375,-9.55094 l -0.0526,-0.24267 c -1.14327,-5.27658 -6.15878,-8.66435 -12.58915,-8.47424 -1.01625,0.0307 -2.17266,0.0951 -3.43421,0.15813 -8.23507,0.40124 -22.02445,1.0872 -27.37287,-3.9892 -1.56379,-1.47706 -2.29969,-3.31374 -2.27778,-5.62482 0,-0.72801 0.48184,-1.37193 1.19583,-1.62511 z"
     id="path4"
     style="fill:#f2496b;fill-opacity:1;stroke-width:4.38036013"
     inkscape:connector-curvature="0"
     inkscape:export-filename="C:\Users\suitedoalex\sites\wellhub-logo-3.png"
     inkscape:export-xdpi="108.80431"
     inkscape:export-ydpi="108.80431" />
  <path
     d="m 41.188706,334.44942 h 20.64135 l 10.25206,25.75779 c 1.30359,3.28308 5.94936,3.29315 7.27253,0.0175 l 10.42846,-25.77706 H 108.0917 l 11.3206,26.30664 c 1.382,3.21475 5.96868,3.14598 7.253,-0.11783 l 10.27151,-26.18879 h 19.97488 L 132.83022,389.15 h -18.64194 l -11.99693,-27.72768 c -1.37193,-3.16569 -5.870994,-3.14598 -7.213574,0.0394 l -11.63407,27.69791 h -18.30863 z"
     id="path6"
     style="fill:#f2496b;fill-opacity:1;stroke-width:4.38036013"
     inkscape:connector-curvature="0"
     inkscape:export-filename="C:\Users\suitedoalex\sites\wellhub-logo-3.png"
     inkscape:export-xdpi="108.80431"
     inkscape:export-ydpi="108.80431" />
  <path
     d="m 153.37324,361.96066 c 0,-17.0834 15.42719,-29.07048 38.61681,-29.07048 23.18963,0 37.28388,12.53594 37.28388,29.29563 v 3.21519 h -51.59364 c -2.13674,0 -3.57744,2.21471 -2.68559,4.15565 2.47972,5.41982 8.79182,8.48782 17.87756,8.48782 7.32177,0 12.7613,-2.21515 15.86829,-5.32214 0.66625,-0.66669 1.22519,-1.33294 1.66629,-1.99963 l 18.30859,2.88184 c -0.4411,0.9996 -1.10779,1.99919 -1.8818,2.8814 -6.54732,9.21321 -18.41679,14.7605 -34.28464,14.7605 -23.41522,0 -39.16568,-11.65351 -39.16568,-29.29585 z m 51.34877,-6.65508 c 2.56777,0 3.89107,-3.04829 2.16609,-4.93973 -2.91119,-3.19547 -7.88991,-5.15568 -14.5647,-5.15568 -6.67435,0 -11.84975,1.87216 -15.04478,5.18503 -1.77405,1.83274 -0.37234,4.92002 2.18579,4.92002 h 25.26724 z"
     id="path8"
     style="fill:#f2496b;fill-opacity:1;stroke-width:4.38036013"
     inkscape:connector-curvature="0"
     inkscape:export-filename="C:\Users\suitedoalex\sites\wellhub-logo-3.png"
     inkscape:export-xdpi="108.80431"
     inkscape:export-ydpi="108.80431" />
  <path
     d="m 234.80807,311.48674 h 20.1904 v 77.66501 h -20.1904 z"
     id="path10"
     style="fill:#f2496b;fill-opacity:1;stroke-width:4.38036013"
     inkscape:connector-curvature="0"
     inkscape:export-filename="C:\Users\suitedoalex\sites\wellhub-logo-3.png"
     inkscape:export-xdpi="108.80431"
     inkscape:export-ydpi="108.80431" />
  <path
     d="m 264.75835,311.48674 h 20.19039 v 77.66501 h -20.19039 z"
     id="path12"
     style="fill:#f2496b;fill-opacity:1;stroke-width:4.38036013"
     inkscape:connector-curvature="0"
     inkscape:export-filename="C:\Users\suitedoalex\sites\wellhub-logo-3.png"
     inkscape:export-xdpi="108.80431"
     inkscape:export-ydpi="108.80431" />
  <path
     d="m 294.70862,311.48674 h 20.1904 v 25.61056 c 0,2.50907 2.9401,3.86173 4.85168,2.22479 4.85169,-4.15561 11.31053,-6.41968 19.33754,-6.41968 15.8683,0 25.63037,9.09564 25.63037,25.29684 v 30.9525 h -19.97488 v -27.84551 c 0,-9.21321 -5.21439,-14.20201 -14.30976,-14.20201 -9.76208,0 -15.53495,5.98883 -15.53495,15.8683 v 26.18886 h -20.1904 z"
     id="path14"
     style="fill:#f2496b;fill-opacity:1;stroke-width:4.38036013"
     inkscape:connector-curvature="0"
     inkscape:export-filename="C:\Users\suitedoalex\sites\wellhub-logo-3.png"
     inkscape:export-xdpi="108.80431"
     inkscape:export-ydpi="108.80431" />
  <path
     d="m 371.72193,365.40275 v -30.95211 h 20.08263 v 27.78642 c 0,7.79223 6.26304,14.17266 14.05483,14.26071 9.81113,0.10775 15.78988,-5.90035 15.78988,-15.86786 v -26.18908 h 20.08264 v 54.70041 h -19.74929 v -0.92119 c 0,-3.29316 -3.76361,-5.04749 -6.38044,-3.05793 -4.70494,3.58707 -10.7621,5.52801 -18.14213,5.52801 -15.97605,0 -25.73812,-9.09582 -25.73812,-25.29702 z"
     id="path16"
     style="fill:#f2496b;fill-opacity:1;stroke-width:4.38036013"
     inkscape:connector-curvature="0"
     inkscape:export-filename="C:\Users\suitedoalex\sites\wellhub-logo-3.png"
     inkscape:export-xdpi="108.80431"
     inkscape:export-ydpi="108.80431" />
  <path
     d="m 470.27521,388.75971 v 0.39204 h -19.74973 v -77.66501 h 20.19083 v 25.74767 c 0,2.48979 2.90112,3.85209 4.8219,2.25457 5.14517,-4.28329 12.4779,-6.81203 21.03274,-6.81203 19.08523,0 32.17813,11.98699 32.17813,29.40374 0,17.41675 -13.31192,29.17801 -32.51104,29.17801 -7.91969,0 -14.69172,-2.11703 -19.74885,-5.77287 -2.58748,-1.87173 -6.21398,0.0688 -6.21398,3.2638 z m 18.86665,-11.14408 c 11.53787,0 18.5333,-5.98883 18.5333,-15.53494 0,-9.54656 -6.77203,-15.42719 -18.30552,-15.42719 -11.53787,0 -18.97704,6.10622 -18.97704,15.53494 0,9.42873 7.42953,15.42719 18.74926,15.42719 z"
     id="path18"
     style="fill:#f2496b;fill-opacity:1;stroke-width:4.38036013"
     inkscape:connector-curvature="0"
     inkscape:export-filename="C:\Users\suitedoalex\sites\wellhub-logo-3.png"
     inkscape:export-xdpi="108.80431"
     inkscape:export-ydpi="108.80431" />
  <rect
     style="fill:#f2486a;fill-opacity:1;fill-rule:evenodd"
     id="rect4525"
     width="693.30731"
     height="346.65366"
     x="3.346344"
     y="740.67316"
     rx="12.380489"
     ry="12.380489"
     inkscape:export-filename="C:\Users\suitedoalex\sites\wellhub-logo-1.png"
     inkscape:export-xdpi="199.39207"
     inkscape:export-ydpi="199.39207" />
  <path
     d="m 603.9949,919.97835 0.0657,-0.0219 c 0.60887,-0.23215 1.29658,-0.12659 1.81785,0.2637 13.92954,10.52163 41.80615,-2.31108 49.8485,-10.54265 2.46176,-2.52221 3.51743,-5.94152 2.9217,-9.39245 -0.61325,-3.46145 -2.78153,-6.3425 -5.96167,-7.91497 l -1.76091,-0.85478 0.0613,0.16865 c -4.54682,-1.42467 -9.62804,0.48547 -13.05786,5.04446 -0.61325,0.80205 -1.28782,1.73077 -2.02372,2.74386 -4.76146,6.54307 -12.72933,17.50799 -20.03577,18.63725 -2.06315,0.31626 -3.91604,-0.14806 -5.68133,-1.42493 -0.69209,-0.50637 -0.9812,-1.41398 -0.70524,-2.20551 l 0.0219,-0.0635 c 0.23654,-0.67545 0.74904,-1.17131 1.35791,-1.32944 16.82496,-4.443 23.95181,-33.83394 22.45372,-45.05205 -0.45993,-3.47204 -2.51432,-6.42695 -5.61562,-8.10493 -3.12319,-1.68854 -6.75013,-1.80462 -9.9697,-0.3167 l -0.2234,0.10556 c -4.95418,2.26894 -7.17941,7.90441 -5.55429,14.0253 0.25844,0.97091 0.5782,2.06845 0.91987,3.26096 2.9217,10.21557 7.80142,27.31186 -1.90107,30.46747 -0.95492,0.30575 -1.97993,-0.053 -2.52747,-0.84454 l -0.0613,-0.0951 c -0.39861,-0.56989 -0.45993,-1.30841 -0.19273,-1.95233 6.60996,-15.76645 -12.0898,-39.40576 -21.74849,-45.1573 -3.02683,-1.80463 -6.63187,-2.06845 -9.90399,-0.71764 -3.29404,1.35082 -5.65943,4.09467 -6.4917,7.51394 l -0.0569,0.23216 c -1.28345,5.245 1.78718,10.4794 7.63934,13.02277 0.92864,0.41175 2.01059,0.85482 3.17577,1.34025 9.98284,4.14746 26.66763,11.09151 22.81729,20.6527 -0.33291,0.82307 -1.20022,1.34039 -2.17266,1.28739 -0.7359,-0.0438 -1.40171,-0.44286 -1.73024,-1.05523 -8.27888,-15.03835 -38.70486,-15.33384 -49.336,-11.43966 -3.31593,1.21362 -5.76455,3.8414 -6.73699,7.20788 -0.97682,3.3876 -0.2891,6.91256 1.90108,9.70898 l 0.14017,0.1796 c 3.34659,4.2634 9.40463,5.1605 15.07282,2.22653 0.89797,-0.46431 1.91422,-1.01317 3.02683,-1.6146 9.56232,-5.14999 25.57692,-13.77202 30.645,-4.61164 0.40737,0.72802 0.2891,1.65665 -0.29787,2.30057 l -0.0657,0.0736 c -0.49936,0.52783 -1.23088,0.7705 -1.94488,0.64391 -17.0396,-3.00756 -36.28253,20.31523 -39.835,30.97396 -1.11261,3.32426 -0.5563,6.87016 1.50685,9.71957 2.06315,2.8599 5.29585,4.5166 8.84832,4.5696 h 0.2234 c 0,0 0.10513,0 0.14893,0 5.39223,0 9.80763,-4.0948 11.00785,-10.24741 0.19273,-0.99171 0.39423,-2.12097 0.62201,-3.35579 1.43238,-8.04147 3.82843,-21.50757 10.04417,-25.50728 1.8047,-1.16079 3.79777,-1.46698 6.08432,-0.90761 0.65267,0.15813 1.16517,0.72802 1.26154,1.40347 l 0.035,0.17959 c 0.0964,0.61194 -0.15331,1.23483 -0.66581,1.65666 -13.47837,11.08099 -7.0261,40.79907 -0.68334,50.37107 1.93612,2.923 5.06808,4.7067 8.61179,4.8964 0.2015,0.01 0.40737,0.022 0.61763,0.022 3.32907,0 6.40847,-1.4355 8.55922,-4.0422 l 0.11827,-0.1476 c 3.46487,-4.1684 3.00493,-10.205 -1.15641,-15.0067 -0.66144,-0.76 -1.42362,-1.6146 -2.25589,-2.5542 -5.47545,-6.12069 -14.63478,-16.37861 -13.92954,-23.68155 0.20587,-2.13148 1.20898,-3.85165 3.08377,-5.27658 0.56507,-0.43234 1.37981,-0.47483 2.01935,-0.10557 0.56944,0.32722 0.91987,0.93959 0.94177,1.62555 0.33291,17.3493 27.88538,30.88945 39.41887,31.96565 3.51743,0.3272 6.8903,-0.9816 9.24256,-3.5879 2.37415,-2.6278 3.30279,-6.11062 2.55375,-9.55096 l -0.0526,-0.24267 c -1.14327,-5.27658 -6.15878,-8.66435 -12.58915,-8.47424 -1.01625,0.0307 -2.17266,0.0951 -3.43421,0.15813 -8.23507,0.40124 -22.02445,1.0872 -27.37287,-3.9892 -1.56379,-1.47706 -2.29969,-3.31374 -2.27778,-5.62482 0,-0.72801 0.48184,-1.37193 1.19583,-1.62511 z"
     id="path4-1"
     style="fill:#ffffff;fill-opacity:1;stroke-width:4.38036013"
     inkscape:connector-curvature="0"
     inkscape:export-filename="C:\Users\suitedoalex\sites\wellhub-logo-1.png"
     inkscape:export-xdpi="199.39207"
     inkscape:export-ydpi="199.39207" />
  <path
     d="m 41.188705,898.44936 h 20.641352 l 10.252058,25.75779 c 1.303595,3.28308 5.949361,3.29315 7.272537,0.0175 L 89.783106,898.44759 H 108.0917 l 11.3206,26.30664 c 1.382,3.21475 5.96868,3.14598 7.253,-0.11783 l 10.27151,-26.18879 h 19.97488 l -24.08147,54.70231 h -18.64194 l -11.99693,-27.72766 c -1.37193,-3.16569 -5.870994,-3.14598 -7.213575,0.0394 L 83.343714,953.15952 H 65.035079 Z"
     id="path6-3"
     style="fill:#ffffff;fill-opacity:1;stroke-width:4.38036013"
     inkscape:connector-curvature="0"
     inkscape:export-filename="C:\Users\suitedoalex\sites\wellhub-logo-1.png"
     inkscape:export-xdpi="199.39207"
     inkscape:export-ydpi="199.39207" />
  <path
     d="m 153.37324,925.9606 c 0,-17.0834 15.42719,-29.07048 38.61681,-29.07048 23.18963,0 37.28388,12.53594 37.28388,29.29563 v 3.21519 h -51.59364 c -2.13674,0 -3.57744,2.21471 -2.68559,4.15565 2.47972,5.41982 8.79182,8.48782 17.87756,8.48782 7.32177,0 12.7613,-2.21515 15.86829,-5.32214 0.66625,-0.66669 1.22519,-1.33294 1.66629,-1.99963 l 18.30859,2.88184 c -0.4411,0.9996 -1.10779,1.99919 -1.8818,2.8814 -6.54732,9.21324 -18.41679,14.76054 -34.28464,14.76054 -23.41522,0 -39.16568,-11.65355 -39.16568,-29.29589 z m 51.34877,-6.65508 c 2.56777,0 3.89107,-3.04829 2.16609,-4.93973 -2.91119,-3.19547 -7.88991,-5.15568 -14.5647,-5.15568 -6.67435,0 -11.84975,1.87216 -15.04478,5.18503 -1.77405,1.83274 -0.37234,4.92002 2.18579,4.92002 h 25.26724 z"
     id="path8-4"
     style="fill:#ffffff;fill-opacity:1;stroke-width:4.38036013"
     inkscape:connector-curvature="0"
     inkscape:export-filename="C:\Users\suitedoalex\sites\wellhub-logo-1.png"
     inkscape:export-xdpi="199.39207"
     inkscape:export-ydpi="199.39207" />
  <path
     d="m 234.80807,875.48668 h 20.1904 v 77.66504 h -20.1904 z"
     id="path10-4"
     style="fill:#ffffff;fill-opacity:1;stroke-width:4.38036013"
     inkscape:connector-curvature="0"
     inkscape:export-filename="C:\Users\suitedoalex\sites\wellhub-logo-1.png"
     inkscape:export-xdpi="199.39207"
     inkscape:export-ydpi="199.39207" />
  <path
     d="m 264.75835,875.48668 h 20.19039 v 77.66504 h -20.19039 z"
     id="path12-7"
     style="fill:#ffffff;fill-opacity:1;stroke-width:4.38036013"
     inkscape:connector-curvature="0"
     inkscape:export-filename="C:\Users\suitedoalex\sites\wellhub-logo-1.png"
     inkscape:export-xdpi="199.39207"
     inkscape:export-ydpi="199.39207" />
  <path
     d="m 294.70862,875.48668 h 20.1904 v 25.61056 c 0,2.50907 2.9401,3.86173 4.85168,2.22479 4.85169,-4.15561 11.31053,-6.41968 19.33754,-6.41968 15.8683,0 25.63037,9.09564 25.63037,25.29684 v 30.95253 h -19.97488 v -27.84554 c 0,-9.21321 -5.21439,-14.20201 -14.30976,-14.20201 -9.76208,0 -15.53495,5.98883 -15.53495,15.8683 v 26.18885 h -20.1904 z"
     id="path14-2"
     style="fill:#ffffff;fill-opacity:1;stroke-width:4.38036013"
     inkscape:connector-curvature="0"
     inkscape:export-filename="C:\Users\suitedoalex\sites\wellhub-logo-1.png"
     inkscape:export-xdpi="199.39207"
     inkscape:export-ydpi="199.39207" />
  <path
     d="m 371.72193,929.40269 v -30.95211 h 20.08263 V 926.237 c 0,7.79223 6.26304,14.17266 14.05483,14.26071 9.81113,0.10775 15.78988,-5.90035 15.78988,-15.86786 v -26.18908 h 20.08264 v 54.70045 h -19.74929 v -0.9212 c 0,-3.2932 -3.76361,-5.0475 -6.38044,-3.058 -4.70494,3.5871 -10.7621,5.528 -18.14213,5.528 -15.97605,0 -25.73812,-9.0958 -25.73812,-25.29697 z"
     id="path16-1"
     style="fill:#ffffff;fill-opacity:1;stroke-width:4.38036013"
     inkscape:connector-curvature="0"
     inkscape:export-filename="C:\Users\suitedoalex\sites\wellhub-logo-1.png"
     inkscape:export-xdpi="199.39207"
     inkscape:export-ydpi="199.39207" />
  <path
     d="m 470.27521,952.75962 v 0.3921 h -19.74973 v -77.66504 h 20.19083 v 25.74767 c 0,2.48979 2.90112,3.85209 4.8219,2.25457 5.14517,-4.28329 12.4779,-6.81203 21.03274,-6.81203 19.08523,0 32.17813,11.98699 32.17813,29.40374 0,17.41675 -13.31192,29.17799 -32.51104,29.17799 -7.91969,0 -14.69172,-2.117 -19.74885,-5.7729 -2.58748,-1.8717 -6.21398,0.069 -6.21398,3.2638 z m 18.86665,-11.14405 c 11.53787,0 18.5333,-5.98883 18.5333,-15.53494 0,-9.54656 -6.77203,-15.42719 -18.30552,-15.42719 -11.53787,0 -18.97704,6.10622 -18.97704,15.53494 0,9.42873 7.42953,15.42719 18.74926,15.42719 z"
     id="path18-6"
     style="fill:#ffffff;fill-opacity:1;stroke-width:4.38036013"
     inkscape:connector-curvature="0"
     inkscape:export-filename="C:\Users\suitedoalex\sites\wellhub-logo-1.png"
     inkscape:export-xdpi="199.39207"
     inkscape:export-ydpi="199.39207" />
</svg>
